# xmcd
#
# Track frame offsets:
#	150
#	21383
#	39090
#	65195
#	87750
#	114928
#	137929
#	170260
#	183640
#	202116
#	219400
#
# Disc length: 3183 seconds
#
# Revision: 0
# Processed by: cddbd v1.5.2PL0 Copyright (c) Steve Scherf et al.
# Submitted via: dBpowerAMP V4.0
#
DISCID=9d0c6d0b
DTITLE=T.Blues Mob - Tbilisi, Georgia
DYEAR=2006
DGENRE=Blues
TTITLE0=Before You Accuse Me
TTITLE1=Since I Met You Baby
TTITLE2=Cherry Red Wine
TTITLE3=Got My Mojo Working
TTITLE4=Hoochie Coochie Man
TTITLE5=Boggie All Day
TTITLE6=Thrill Is Gone
TTITLE7=(Come On) Let The Good Times Roll
TTITLE8=Bonney Morony
TTITLE9=Maries Mood
TTITLE10=Sugar Melts When It´s Wet
EXTD=
EXTT0=
EXTT1=
EXTT2=
EXTT3=
EXTT4=
EXTT5=
EXTT6=
EXTT7=
EXTT8=
EXTT9=
EXTT10=
PLAYORDER=
